<?xml version="1.0" encoding="UTF-8"?>
<svg xmlns="http://www.w3.org/2000/svg" xmlns:xlink="http://www.w3.org/1999/xlink" width="378.37pt" height="378.37pt" viewBox="0 0 378.37 378.37" version="1.1">
<g id="surface1">
<path style=" stroke:none;fill-rule:evenodd;fill:rgb(96.899414%,15.299988%,56.098938%);fill-opacity:1;" d="M 378.375 189.183594 C 378.375 293.667969 293.667969 378.371094 189.1875 378.371094 C 84.703125 378.371094 0 293.667969 0 189.183594 C 0 84.695313 84.703125 -0.00390625 189.1875 -0.00390625 C 293.667969 -0.00390625 378.375 84.695313 378.375 189.183594 "/>
<path style=" stroke:none;fill-rule:evenodd;fill:rgb(99.198914%,99.198914%,99.198914%);fill-opacity:1;" d="M 189.210938 262.992188 C 149.191406 262.65625 119.171875 230.871094 117.664063 193.582031 C 115.996094 152.308594 148.3125 118.007813 189.167969 118.054688 C 229.050781 118.105469 259.074219 149.882813 260.695313 187.117188 C 262.527344 229.320313 229.4375 262.796875 189.210938 262.992188 M 189.304688 77.011719 C 125.800781 77.15625 74.070313 130.074219 77.109375 195.449219 C 79.78125 253.066406 126.460938 302.328125 189.027344 302.839844 C 250.621094 303.339844 301.410156 252.078125 301.40625 190.074219 C 301.402344 127.890625 251.027344 76.871094 189.304688 77.011719 "/>
</g>
</svg>
